<svg xmlns="http://www.w3.org/2000/svg" version="1.0" width="100%" height="100%" viewBox="0 0 200 200" preserveAspectRatio="xMidYMid meet">

<g transform="translate(0,200) scale(0.1,-0.1)" fill="current" stroke="none">
<path d="M938 1730 l-3 -125 -187 -3 -188 -2 0 -308 0 -307 125 -125 125 -125 0 308 0 307 190 0 190 0 0 -188 0 -187 118 -118 c64 -64 121 -117 125 -117 4 0 7 138 7 307 l0 307 -250 250 -249 251 -3 -125z"/>
<path d="M1210 659 c0 -64 -2 -70 -17 -63 -10 4 -36 9 -58 11 -90 9 -161 -74 -151 -176 8 -90 65 -146 144 -144 26 1 77 1 115 2 l67 0 0 221 0 220 -50 0 -50 0 0 -71z m-16 -161 c19 -27 20 -58 4 -93 -21 -46 -85 -46 -106 1 -28 59 -2 114 53 114 24 0 39 -7 49 -22z"/>
<path d="M425 596 c-81 -36 -117 -134 -81 -220 26 -63 110 -104 187 -91 38 7 39 8 39 49 l0 42 -50 0 c-56 -1 -76 13 -86 61 -5 26 -1 37 21 59 23 23 33 26 71 21 l44 -5 0 43 c0 30 -5 45 -16 49 -27 10 -98 6 -129 -8z"/>
<path d="M696 588 c-130 -76 -87 -285 62 -305 134 -18 232 119 170 236 -32 62 -66 84 -135 88 -47 3 -66 -1 -97 -19z m120 -76 c54 -35 29 -142 -33 -142 -54 0 -86 88 -46 132 16 18 59 24 79 10z"/>
<path d="M1440 588 c-58 -40 -75 -72 -75 -141 0 -75 27 -120 89 -148 47 -21 89 -24 152 -8 44 11 44 11 44 56 0 39 -2 44 -17 38 -10 -4 -40 -9 -68 -12 -41 -4 -55 -2 -75 16 l-25 20 103 1 102 0 0 43 c0 90 -64 157 -150 157 -32 0 -57 -7 -80 -22z m118 -80 c22 -22 13 -28 -38 -28 -27 0 -50 4 -50 8 0 16 25 32 50 32 14 0 31 -5 38 -12z"/>
</g>
</svg>